HIERARCHY
ROOT Hips
{
	OFFSET -0.001795 -0.223333 0.028219
	CHANNELS 6 Xposition Yposition Zposition Zrotation Yrotation Xrotation 
	JOINT LeftUpLeg
	{
		OFFSET 0.069520 -0.091406 -0.006815
		CHANNELS 3 Zrotation Yrotation Xrotation
		JOINT LeftLeg
		{
			OFFSET 0.034277 -0.375199 -0.004496
			CHANNELS 3 Zrotation Yrotation Xrotation
			JOINT LeftFoot
			{
				OFFSET -0.013596 -0.397961 -0.043693
				CHANNELS 3 Zrotation Yrotation Xrotation
				JOINT LeftToe
				{
					OFFSET 0.026358 -0.055791 0.119288
					CHANNELS 3 Zrotation Yrotation Xrotation
					End Site
					{
						OFFSET 0.000000 0.000000 0.000000
					}
				}
			}
		}
	}
	JOINT RightUpLeg
	{
		OFFSET -0.067670 -0.090522 -0.004320
		CHANNELS 3 Zrotation Yrotation Xrotation
		JOINT RightLeg
		{
			OFFSET -0.038290 -0.382569 -0.008850
			CHANNELS 3 Zrotation Yrotation Xrotation
			JOINT RightFoot
			{
				OFFSET 0.015774 -0.398415 -0.042312
				CHANNELS 3 Zrotation Yrotation Xrotation
				JOINT RightToe
				{
					OFFSET -0.025372 -0.048144 0.123348
					CHANNELS 3 Zrotation Yrotation Xrotation
					End Site
					{
						OFFSET 0.000000 0.000000 0.000000
					}
				}
			}
		}
	}
	JOINT Spine
	{
		OFFSET -0.002533 0.108963 -0.026696
		CHANNELS 3 Zrotation Yrotation Xrotation
		JOINT Spine1
		{
			OFFSET 0.005487 0.135180 0.001092
			CHANNELS 3 Zrotation Yrotation Xrotation
			JOINT Spine2
			{
				OFFSET 0.001457 0.052922 0.025425
				CHANNELS 3 Zrotation Yrotation Xrotation
				JOINT Neck
				{
					OFFSET -0.002778 0.213870 -0.042857
					CHANNELS 3 Zrotation Yrotation Xrotation
					JOINT Head
					{
						OFFSET 0.005152 0.064970 0.051349
						CHANNELS 3 Zrotation Yrotation Xrotation
						End Site
						{
							OFFSET 0.000000 0.000000 0.000000
						}
					}
				}
				JOINT LeftShoulder
				{
					OFFSET 0.078845 0.121749 -0.034090
					CHANNELS 3 Zrotation Yrotation Xrotation
					JOINT LeftArm
					{
						OFFSET 0.090977 0.030469 -0.008868
						CHANNELS 3 Zrotation Yrotation Xrotation
						JOINT LeftForeArm
						{
							OFFSET 0.259612 -0.012772 -0.027456
							CHANNELS 3 Zrotation Yrotation Xrotation
							JOINT LeftHand
							{
								OFFSET 0.249234 0.008986 -0.001171
								CHANNELS 3 Zrotation Yrotation Xrotation
								End Site
								{
									OFFSET 0.000000 0.000000 0.000000
								}
							}
						}
					}
				}
				JOINT RightShoulder
				{
					OFFSET -0.081759 0.118833 -0.038615
					CHANNELS 3 Zrotation Yrotation Xrotation
					JOINT RightArm
					{
						OFFSET -0.096012 0.032551 -0.009143
						CHANNELS 3 Zrotation Yrotation Xrotation
						JOINT RightForeArm
						{
							OFFSET -0.253742 -0.013329 -0.021401
							CHANNELS 3 Zrotation Yrotation Xrotation
							JOINT RightHand
							{
								OFFSET -0.255298 0.007772 -0.005559
								CHANNELS 3 Zrotation Yrotation Xrotation
								End Site
								{
									OFFSET 0.000000 0.000000 0.000000
								}
							}
						}
					}
				}
			}
		}
	}
}
MOTION
Frames: 7
Frame Time: 0.050000
0.000000 0.959515 0.000000 -0.088861 -2.822475 11.292298 3.554227 -0.742434 -10.610173 -0.160795 0.087495 -2.167775 3.645264 10.470598 13.519511 0.000000 0.000000 0.000000 -4.326454 1.238259 -15.342767 -2.642027 0.375003 1.865114 0.973868 -2.673601 9.992700 0.000000 0.000000 0.000000 5.132723 -0.530887 3.359162 0.063644 -0.020507 0.175406 -1.058856 4.352027 3.889185 7.713801 -4.638561 -7.723692 0.000000 0.000000 0.000000 3.985136 -31.098679 10.109847 -11.227684 -33.187742 0.178333 10.443352 -17.334737 -0.972677 0.000000 0.000000 0.000000 4.120215 27.125409 10.963055 41.123467 52.224511 14.783153 -20.857264 43.714058 -6.050565 0.000000 0.000000 0.000000 
0.000065 0.961772 0.005273 -0.515213 -3.878483 11.488919 3.298450 -0.716791 -10.075156 0.365066 0.063086 -2.823451 4.098797 11.070739 13.643139 0.000000 0.000000 0.000000 -3.873810 1.284527 -15.181026 -2.816523 0.397541 1.958234 0.941260 -3.125235 10.548940 0.000000 0.000000 0.000000 5.280755 -0.350333 1.154341 -0.185978 0.110616 -0.810946 -2.427805 5.704353 5.272868 9.752900 -5.999209 -8.157871 0.000000 0.000000 0.000000 -0.154731 -29.542566 10.193596 -19.560816 -33.600959 1.832355 7.947920 -15.876786 -0.554670 0.000000 0.000000 0.000000 7.191023 24.683695 10.684244 48.349748 45.940660 14.913259 -14.332175 45.639551 -3.547742 0.000000 0.000000 0.000000 
0.000024 0.961804 0.011783 -0.330027 -2.953007 10.670454 3.080453 -0.623901 -8.246983 0.363795 0.103795 -3.866602 3.143497 9.448939 12.371095 0.000000 0.000000 0.000000 -4.170488 1.125971 -13.609357 -3.702711 0.441283 1.123506 0.632599 -4.191801 12.039361 0.000000 0.000000 0.000000 6.141082 -0.254230 -0.171966 -0.787542 0.376448 -0.114253 -4.144323 5.002254 4.951082 8.356744 -5.046986 -7.880935 0.000000 0.000000 0.000000 -4.733729 -28.674833 10.550744 -26.507062 -29.180485 2.480753 -0.823693 -16.029716 0.652709 0.000000 0.000000 0.000000 8.630995 21.740715 9.606863 53.891155 37.803738 12.783119 -1.431068 47.453254 1.770624 0.000000 0.000000 0.000000 
0.000285 0.961162 0.018210 -0.263418 -3.001561 11.047828 3.398793 -0.593775 -7.897054 -0.262780 0.179443 -4.692678 3.263748 9.559366 11.961853 0.000000 0.000000 0.000000 -4.341690 1.087309 -13.122663 -3.657263 0.385202 0.438130 0.668987 -4.140942 12.089411 0.000000 0.000000 0.000000 5.634739 -0.079847 -1.907039 -0.954618 0.455760 -0.483760 -4.154302 4.483535 5.612289 8.616734 -4.621109 -11.210323 0.000000 0.000000 0.000000 -7.019502 -24.964980 9.388225 -34.447945 -22.232854 1.853550 -6.042772 -18.474710 1.580795 0.000000 0.000000 0.000000 9.326229 17.842400 7.789477 58.411798 31.098625 10.415528 8.189779 42.778965 5.112592 0.000000 0.000000 0.000000 
0.000669 0.960530 0.024343 -0.151522 -2.100628 10.327471 3.315726 -0.511000 -6.443401 -0.614839 0.217479 -5.177385 3.179190 9.370976 11.181414 0.000000 0.000000 0.000000 -3.828160 0.982390 -11.521851 -4.924430 0.438627 -0.554026 1.093205 -3.388868 12.591211 0.000000 0.000000 0.000000 5.323856 0.085254 -3.521980 -0.833247 0.397358 -0.303993 -4.849783 3.494738 6.747676 9.234640 -4.878673 -12.411550 0.000000 0.000000 0.000000 -9.679738 -22.190004 8.527078 -40.833468 -16.092138 0.356612 -9.798826 -16.824129 1.985790 0.000000 0.000000 0.000000 11.038173 14.261245 6.234136 60.498025 23.663061 6.566018 10.596149 35.706009 4.838528 0.000000 0.000000 0.000000 
0.001103 0.959950 0.029410 -0.174228 -2.833603 9.947793 3.159968 -0.460700 -5.685747 0.067305 0.156430 -4.695143 3.381319 9.604816 11.060594 0.000000 0.000000 0.000000 -3.860695 0.941027 -10.889087 -5.024816 0.410183 -0.948897 1.643750 -2.378817 12.411657 0.000000 0.000000 0.000000 5.301346 0.118947 -3.746180 -0.975575 0.467259 -0.615073 -4.805939 3.983924 7.233899 9.626988 -4.662587 -14.883073 0.000000 0.000000 0.000000 -11.172298 -19.224456 7.280520 -45.664956 -10.464153 -1.610538 -12.691758 -15.528125 2.212342 0.000000 0.000000 0.000000 12.355125 11.167680 4.870226 61.765778 17.226826 3.104046 9.926640 30.841249 3.904917 0.000000 0.000000 0.000000 
0.001561 0.958775 0.033025 -0.262406 -2.583248 9.582855 3.190725 -0.415219 -4.983433 0.343710 0.127436 -4.443305 3.395021 9.535860 10.436939 0.000000 0.000000 0.000000 -3.746634 0.882851 -10.093726 -5.154948 0.401199 -1.224620 1.608831 -2.389939 12.362824 0.000000 0.000000 0.000000 5.333886 0.192511 -4.490539 -0.921973 0.444802 -0.880849 -4.849363 3.866321 8.011673 10.187397 -4.807479 -16.130011 0.000000 0.000000 0.000000 -12.735362 -16.210542 5.958856 -48.034907 -6.055569 -3.448755 -14.186189 -14.189448 2.198078 0.000000 0.000000 0.000000 13.272934 8.549226 3.645810 62.101209 12.741804 0.561457 7.442604 26.432708 2.717378 0.000000 0.000000 0.000000 
